# xmcd
#
# Track frame offsets:
#	150
#	43260
#	68197
#	122535
#	157185
#	174880
#	205385
#	217382
#	245307
#
# Disc length: 3546
#
# Revision: 2
# Processed by: cddbd v1.5.1PL0 Copyright (c) Steve Scherf et al.
# Submitted via: CDex 1.50Beta7
# Normalized: r0:DSETVAR1,TDELIM( - ),TSWAP
#
DISCID=870dd809
DTITLE=Various Artist - Slow Jams: On the Jazz Tip, Vol. 4
DYEAR=1998
DGENRE=Jazz
TTITLE0=Art Blakey and the Jazz Messengers - Moanin'
TTITLE1=Herbie Hancock - Cantaloupe Island
TTITLE2=Donald Byrd - Fancy Free
TTITLE3=Eddie Harris - Listen Here
TTITLE4=Carmen McRae - Can't Hide Love
TTITLE5=Jimmy Smith and Wes Montgomery - Night Train
TTITLE6=Hugh Masekela - Grazing in the Grass
TTITLE7=John Klemmer - My Love Has Butterfly Wings
TTITLE8=Cannonball Adderley Quintet - Country Preacher
EXTD=YEAR: 1998
EXTT0=
EXTT1=
EXTT2=
EXTT3=
EXTT4=
EXTT5=
EXTT6=
EXTT7=
EXTT8=
PLAYORDER=
